<mxfile host="65bd71144e">
    <diagram id="XE4v63HBkBcOei_9T8jw" name="第 1 页">
        <mxGraphModel dx="968" dy="558" grid="1" gridSize="10" guides="1" tooltips="1" connect="1" arrows="1" fold="1" page="1" pageScale="1" pageWidth="827" pageHeight="1169" math="0" shadow="0">
            <root>
                <mxCell id="0"/>
                <mxCell id="1" parent="0"/>
                <mxCell id="4" value="foreach" style="edgeStyle=none;html=1;exitX=1;exitY=0.5;exitDx=0;exitDy=0;entryX=0;entryY=0.5;entryDx=0;entryDy=0;sketch=1;" edge="1" parent="1" source="2" target="3">
                    <mxGeometry relative="1" as="geometry"/>
                </mxCell>
                <mxCell id="2" value="普通数组" style="rounded=0;whiteSpace=wrap;html=1;fillColor=#ffe6cc;strokeColor=#d79b00;comic=1;" vertex="1" parent="1">
                    <mxGeometry x="40" y="80" width="80" height="30" as="geometry"/>
                </mxCell>
                <mxCell id="6" value="javac" style="edgeStyle=none;sketch=1;html=1;exitX=0.5;exitY=1;exitDx=0;exitDy=0;entryX=0.5;entryY=0;entryDx=0;entryDy=0;fontSize=11;" edge="1" parent="1" source="3" target="5">
                    <mxGeometry relative="1" as="geometry"/>
                </mxCell>
                <mxCell id="3" value="&lt;pre style=&quot;background-color: rgb(255 , 255 , 255) ; color: rgb(8 , 8 , 8) ; font-family: &amp;#34;consolas&amp;#34; , monospace ; font-size: 11px&quot;&gt;&lt;span style=&quot;color: #0033b3&quot;&gt;public static void &lt;/span&gt;&lt;span style=&quot;color: #795e26&quot;&gt;main&lt;/span&gt;(&lt;span style=&quot;color: #066555&quot;&gt;String&lt;/span&gt;[] args) {&lt;br&gt;    &lt;span style=&quot;color: #0033b3&quot;&gt;int&lt;/span&gt;[] &lt;span style=&quot;color: #000000&quot;&gt;arr &lt;/span&gt;= &lt;span style=&quot;color: #0033b3&quot;&gt;new int&lt;/span&gt;[]{&lt;span style=&quot;color: #1750eb&quot;&gt;1&lt;/span&gt;, &lt;span style=&quot;color: #1750eb&quot;&gt;2&lt;/span&gt;, &lt;span style=&quot;color: #1750eb&quot;&gt;3&lt;/span&gt;};&lt;br&gt;    &lt;span style=&quot;color: #0033b3&quot;&gt;for &lt;/span&gt;(&lt;span style=&quot;color: #0033b3&quot;&gt;int &lt;/span&gt;&lt;span style=&quot;color: #000000&quot;&gt;x &lt;/span&gt;: &lt;span style=&quot;color: #000000&quot;&gt;arr&lt;/span&gt;) {&lt;br&gt;        &lt;span style=&quot;color: #066555&quot;&gt;System&lt;/span&gt;.&lt;span style=&quot;color: #871094 ; font-style: italic&quot;&gt;out&lt;/span&gt;.&lt;span style=&quot;color: #795e26&quot;&gt;println&lt;/span&gt;(&lt;span style=&quot;color: #000000&quot;&gt;x&lt;/span&gt;);&lt;br&gt;    }&lt;br&gt;}&lt;/pre&gt;" style="rounded=0;whiteSpace=wrap;html=1;fillColor=#ffe6cc;strokeColor=#d79b00;comic=1;align=left;" vertex="1" parent="1">
                    <mxGeometry x="190" y="50" width="247" height="90" as="geometry"/>
                </mxCell>
                <mxCell id="10" value="javap" style="edgeStyle=none;sketch=1;html=1;exitX=1;exitY=0.5;exitDx=0;exitDy=0;entryX=0;entryY=0.5;entryDx=0;entryDy=0;fontSize=11;" edge="1" parent="1" source="5" target="9">
                    <mxGeometry relative="1" as="geometry"/>
                </mxCell>
                <mxCell id="5" value="&lt;pre style=&quot;background-color: rgb(255 , 255 , 255) ; color: rgb(8 , 8 , 8) ; font-family: &amp;#34;consolas&amp;#34; , monospace ; font-size: 11px&quot;&gt;&lt;pre style=&quot;font-family: &amp;#34;consolas&amp;#34; , monospace&quot;&gt;&lt;span style=&quot;color: #0033b3&quot;&gt;public static void &lt;/span&gt;&lt;span style=&quot;color: #795e26&quot;&gt;main&lt;/span&gt;(&lt;span style=&quot;color: #066555&quot;&gt;String&lt;/span&gt;[] args) {&lt;br&gt;    &lt;span style=&quot;color: #0033b3&quot;&gt;int&lt;/span&gt;[] &lt;span style=&quot;color: #000000&quot;&gt;arr &lt;/span&gt;= &lt;span style=&quot;color: #0033b3&quot;&gt;new int&lt;/span&gt;[]{&lt;span style=&quot;color: #1750eb&quot;&gt;1&lt;/span&gt;, &lt;span style=&quot;color: #1750eb&quot;&gt;2&lt;/span&gt;, &lt;span style=&quot;color: #1750eb&quot;&gt;3&lt;/span&gt;};&lt;br&gt;    &lt;span style=&quot;color: #0033b3&quot;&gt;for &lt;/span&gt;(&lt;span style=&quot;color: #0033b3&quot;&gt;int &lt;/span&gt;i = &lt;span style=&quot;color: #1750eb&quot;&gt;0&lt;/span&gt;; i &amp;lt; &lt;span style=&quot;color: #000000&quot;&gt;arr&lt;/span&gt;.&lt;span style=&quot;color: #871094&quot;&gt;length&lt;/span&gt;; i++) {&lt;br&gt;        &lt;span style=&quot;color: #066555&quot;&gt;System&lt;/span&gt;.&lt;span style=&quot;color: #871094 ; font-style: italic&quot;&gt;out&lt;/span&gt;.&lt;span style=&quot;color: #795e26&quot;&gt;println&lt;/span&gt;(&lt;span style=&quot;color: #000000&quot;&gt;arr&lt;/span&gt;[i]);&lt;br&gt;    }&lt;br&gt;}&lt;/pre&gt;&lt;/pre&gt;" style="rounded=0;whiteSpace=wrap;html=1;fillColor=#ffe6cc;strokeColor=#d79b00;comic=1;align=left;" vertex="1" parent="1">
                    <mxGeometry x="183.5" y="210" width="260" height="90" as="geometry"/>
                </mxCell>
                <mxCell id="9" value="" style="shape=image;imageAspect=0;aspect=fixed;verticalLabelPosition=bottom;verticalAlign=top;comic=1;fontSize=11;image=https://codereaper-image-bed.oss-cn-shenzhen.aliyuncs.com/img/image-20220825003518195.png;imageBorder=default;" vertex="1" parent="1">
                    <mxGeometry x="510" y="161.54" width="270" height="186.92" as="geometry"/>
                </mxCell>
                <mxCell id="13" value="foreach" style="edgeStyle=none;sketch=1;html=1;exitX=1;exitY=0.5;exitDx=0;exitDy=0;entryX=0;entryY=0.5;entryDx=0;entryDy=0;fontSize=11;" edge="1" parent="1" source="11" target="12">
                    <mxGeometry relative="1" as="geometry"/>
                </mxCell>
                <mxCell id="11" value="实现迭代器接口&lt;br&gt;Iterable的集合" style="rounded=0;whiteSpace=wrap;html=1;fillColor=#ffe6cc;strokeColor=#d79b00;comic=1;" vertex="1" parent="1">
                    <mxGeometry x="40" y="400" width="100" height="40" as="geometry"/>
                </mxCell>
                <mxCell id="15" value="javac等价代码" style="edgeStyle=none;sketch=1;html=1;exitX=0.5;exitY=1;exitDx=0;exitDy=0;entryX=0.5;entryY=0;entryDx=0;entryDy=0;fontSize=11;" edge="1" parent="1" source="12" target="14">
                    <mxGeometry relative="1" as="geometry"/>
                </mxCell>
                <mxCell id="12" value="&lt;pre style=&quot;background-color: rgb(255 , 255 , 255) ; color: rgb(8 , 8 , 8) ; font-family: &amp;#34;consolas&amp;#34; , monospace ; font-size: 11px&quot;&gt;&lt;pre style=&quot;font-family: &amp;#34;consolas&amp;#34; , monospace&quot;&gt;&lt;span style=&quot;color: #0033b3&quot;&gt;public static void &lt;/span&gt;&lt;span style=&quot;color: #795e26&quot;&gt;main&lt;/span&gt;(&lt;span style=&quot;color: #066555&quot;&gt;String&lt;/span&gt;[] args) {&lt;br&gt;    &lt;span style=&quot;color: #6c00d5&quot;&gt;List&lt;/span&gt;&amp;lt;&lt;span style=&quot;color: #066555&quot;&gt;Integer&lt;/span&gt;&amp;gt; &lt;span style=&quot;color: #000000&quot;&gt;list &lt;/span&gt;= &lt;span style=&quot;color: #0033b3&quot;&gt;new &lt;/span&gt;&lt;span style=&quot;color: #795e26&quot;&gt;ArrayList&lt;/span&gt;&amp;lt;&amp;gt;();&lt;br&gt;    &lt;span style=&quot;color: #0033b3&quot;&gt;for &lt;/span&gt;(&lt;span style=&quot;color: #066555&quot;&gt;Integer &lt;/span&gt;&lt;span style=&quot;color: #000000&quot;&gt;x &lt;/span&gt;: &lt;span style=&quot;color: #000000&quot;&gt;list&lt;/span&gt;) {&lt;br&gt;        &lt;span style=&quot;color: #066555&quot;&gt;System&lt;/span&gt;.&lt;span style=&quot;color: #871094 ; font-style: italic&quot;&gt;out&lt;/span&gt;.&lt;span style=&quot;color: #795e26&quot;&gt;println&lt;/span&gt;(&lt;span style=&quot;color: #000000&quot;&gt;x&lt;/span&gt;);&lt;br&gt;    }&lt;br&gt;}&lt;/pre&gt;&lt;/pre&gt;" style="rounded=0;whiteSpace=wrap;html=1;fillColor=#ffe6cc;strokeColor=#d79b00;comic=1;align=left;" vertex="1" parent="1">
                    <mxGeometry x="205" y="375" width="265" height="90" as="geometry"/>
                </mxCell>
                <mxCell id="17" style="edgeStyle=none;sketch=1;html=1;exitX=1;exitY=0.5;exitDx=0;exitDy=0;entryX=0;entryY=0.5;entryDx=0;entryDy=0;fontSize=11;" edge="1" parent="1" source="14" target="16">
                    <mxGeometry relative="1" as="geometry"/>
                </mxCell>
                <mxCell id="14" value="&lt;pre style=&quot;background-color: rgb(255 , 255 , 255) ; color: rgb(8 , 8 , 8) ; font-family: &amp;#34;consolas&amp;#34; , monospace ; font-size: 11px&quot;&gt;&lt;pre style=&quot;font-family: &amp;#34;consolas&amp;#34; , monospace&quot;&gt;&lt;pre style=&quot;font-family: &amp;#34;consolas&amp;#34; , monospace&quot;&gt;&lt;span style=&quot;color: #0033b3&quot;&gt;public static void &lt;/span&gt;&lt;span style=&quot;color: #795e26&quot;&gt;main&lt;/span&gt;(&lt;span style=&quot;color: #066555&quot;&gt;String&lt;/span&gt;[] args) {&lt;br&gt;    &lt;span style=&quot;color: #6c00d5&quot;&gt;List&lt;/span&gt;&amp;lt;&lt;span style=&quot;color: #066555&quot;&gt;Integer&lt;/span&gt;&amp;gt; &lt;span style=&quot;color: #000000&quot;&gt;list &lt;/span&gt;= &lt;span style=&quot;color: #0033b3&quot;&gt;new &lt;/span&gt;&lt;span style=&quot;color: #795e26&quot;&gt;ArrayList&lt;/span&gt;&amp;lt;&amp;gt;();&lt;br&gt;    &lt;span style=&quot;color: #6c00d5&quot;&gt;Iterator&lt;/span&gt;&amp;lt;&lt;span style=&quot;color: #066555&quot;&gt;Integer&lt;/span&gt;&amp;gt; &lt;span style=&quot;color: #000000&quot;&gt;it &lt;/span&gt;= &lt;span style=&quot;color: #000000&quot;&gt;list&lt;/span&gt;.&lt;span style=&quot;color: #795e26&quot;&gt;iterator&lt;/span&gt;();&lt;br&gt;    &lt;span style=&quot;color: #0033b3&quot;&gt;while &lt;/span&gt;(&lt;span style=&quot;color: #000000&quot;&gt;it&lt;/span&gt;.&lt;span style=&quot;color: #795e26&quot;&gt;hasNext&lt;/span&gt;()) {&lt;br&gt;        &lt;span style=&quot;color: #066555&quot;&gt;System&lt;/span&gt;.&lt;span style=&quot;color: #871094 ; font-style: italic&quot;&gt;out&lt;/span&gt;.&lt;span style=&quot;color: #795e26&quot;&gt;println&lt;/span&gt;(&lt;span style=&quot;color: #000000&quot;&gt;it&lt;/span&gt;.&lt;span style=&quot;color: #795e26&quot;&gt;next&lt;/span&gt;());&lt;br&gt;    }&lt;br&gt;}&lt;/pre&gt;&lt;/pre&gt;&lt;/pre&gt;" style="rounded=0;whiteSpace=wrap;html=1;fillColor=#ffe6cc;strokeColor=#d79b00;comic=1;align=left;" vertex="1" parent="1">
                    <mxGeometry x="205" y="510" width="265" height="100" as="geometry"/>
                </mxCell>
                <mxCell id="16" value="" style="shape=image;imageAspect=0;aspect=fixed;verticalLabelPosition=bottom;verticalAlign=top;comic=1;fontSize=11;image=https://codereaper-image-bed.oss-cn-shenzhen.aliyuncs.com/img/image-20220825004343942.png;imageBorder=default;sketch=1;" vertex="1" parent="1">
                    <mxGeometry x="510" y="465" width="411.67" height="190" as="geometry"/>
                </mxCell>
            </root>
        </mxGraphModel>
    </diagram>
</mxfile>